HIERARCHY
ROOT pelvis
{
  OFFSET 0 0 0
  CHANNELS 6 Xposition Yposition Zposition Zrotation Xrotation Yrotation
  JOINT pelvis_right_femur
  {
    OFFSET -11.43119 -3.542788 0.2090856
    CHANNELS 3 Zrotation Xrotation Yrotation
    JOINT right_femur_tibia
    {
      OFFSET -1.028693 -40.73281 5
      CHANNELS 3 Zrotation Xrotation Yrotation
      JOINT right_tibia_foot
      {
        OFFSET -0.5013517 -42.05707 -5
        CHANNELS 3 Zrotation Xrotation Yrotation
        End Site
        {
          OFFSET 0 -5 10
        }
      }
    }
  }
  JOINT pelvis_left_femur
  {
    OFFSET 11.43119 -3.542788 0.2090856
    CHANNELS 3 Zrotation Xrotation Yrotation
    JOINT left_femur_tibia
    {
      OFFSET 1.028693 -40.73281 5
      CHANNELS 3 Zrotation Xrotation Yrotation
      JOINT left_tibia_foot
      {
        OFFSET 0.3200228 -42.98253 -5
        CHANNELS 3 Zrotation Xrotation Yrotation
        End Site
        {
          OFFSET 0 -5 10
        }
      }
    }
  }
  JOINT pelvis_spine1
  {
    OFFSET 0 8.64413 -3.209807
    CHANNELS 3 Zrotation Xrotation Yrotation
    JOINT spine1
    {
      OFFSET 0 29.53957 -1.762685
      CHANNELS 3 Zrotation Xrotation Yrotation
      JOINT spine2
      {
        OFFSET 0 16.36153 -0.1422377
        CHANNELS 3 Zrotation Xrotation Yrotation
        JOINT neck
        {
          OFFSET 0 11.60093 5
          CHANNELS 3 Zrotation Xrotation Yrotation
          End Site
          {
            OFFSET 0 20 0
          }
        }
      }
      JOINT right_manubrium
      {
        OFFSET -4.671311 15.89868 4
        CHANNELS 3 Zrotation Xrotation Yrotation
        JOINT right_clavicle
        {
          OFFSET -13.601 1.573642 -2.74176
          CHANNELS 3 Zrotation Xrotation Yrotation
          JOINT right_humerus
          {
            OFFSET -0.06331682 -27.72702 2.252146
            CHANNELS 3 Zrotation Xrotation Yrotation
            JOINT right_radius
            {
              OFFSET -0.5696302 -23.92083 0.4042105
              CHANNELS 3 Zrotation Xrotation Yrotation
              End Site
              {
                OFFSET 0 -15 0
              }
            }
          }
        }
      }
      JOINT left_manubrium
      {
        OFFSET 4.671311 15.89868 4
        CHANNELS 3 Zrotation Xrotation Yrotation
        JOINT left_clavicle
        {
          OFFSET 13.601 1.573642 -2.74176
          CHANNELS 3 Zrotation Xrotation Yrotation
          JOINT left_humerus
          {
            OFFSET 0.000209614 -29.01858 1.101395
            CHANNELS 3 Zrotation Xrotation Yrotation
            JOINT left_radius
            {
              OFFSET -0.2288314 -24.59216 1.790347
              CHANNELS 3 Zrotation Xrotation Yrotation
              End Site
              {
                OFFSET 0 -15 0
              }
            }
          }
        }
      }
    }
  }
}
MOTION
Frames: 7
Frame Time: 0.0416666666667
0 48.05195 0 -2.856075 -22.291 -1.131921 -52.47207 -58.21041 -41.91899 -180 81.65913 -180 10.27035 2.834004 4.466112 62.50518 -49.29002 49.67677 -180 72.19602 -180 -7.386347 -7.38155 -12.44598 -1.589605 20.6338 3.498621 7.1792 15.79647 -9.517124 -9.95776 10.31078 12.06296 6.073788 -29.0281 6.772798 21.03607 -7.788805 25.97396 -57.4797 -35.85608 16.47176 0 -64.35407 0 18.50586 4.723857 32.69288 -25.42494 -27.72216 -2.245826 53.84984 -24.53993 -28.73823 0 -72.75035 0 -8.115539 -6.120273 -17.99635
-0.0118354 48.06216 -0.01083576 -2.780306 -22.25094 -1.126505 -52.52921 -58.30342 -41.89913 -180 81.65348 -180 10.25232 2.823558 4.414095 62.26655 -49.42828 49.48009 -180 72.24516 -180 -7.416765 -7.391002 -12.29959 -1.600024 20.80537 3.637869 6.765386 15.97418 -9.245335 -9.549741 10.14717 11.75286 6.301172 -29.4657 6.777403 21.31534 -8.032488 25.28041 -57.82588 -35.32009 15.5096 0 -65.10547 0 18.44585 4.587385 32.98267 -25.53662 -28.44849 -1.111099 54.30096 -22.44009 -25.57482 0 -73.89148 0 -5.231094 -8.939399 -16.19449
-0.07078974 48.14612 -0.05313723 -2.579236 -22.18433 -1.022349 -52.52364 -58.41919 -41.77473 -180 81.69508 -180 10.24687 2.789091 4.269721 61.97188 -49.52508 49.31883 -180 72.39858 -180 -7.424425 -7.353268 -12.22622 -1.79045 21.06653 3.82564 6.215841 16.20044 -8.927624 -9.01431 9.919523 11.42159 6.586263 -30.01922 6.844278 21.77195 -8.361539 24.14677 -58.28352 -34.57035 14.26639 0 -66.06399 0 18.29391 4.321437 33.18921 -25.72988 -29.93697 0.4838366 55.11019 -19.74257 -21.08753 0 -74.07886 0 -1.676712 -11.76424 -13.56707
-0.07221714 48.12364 -0.07641359 -2.621243 -21.99508 -0.8293368 -52.64009 -58.51901 -41.9135 -180 81.68754 -180 10.27618 2.740236 4.117974 62.20552 -49.84396 49.53155 -180 72.40473 -180 -7.429137 -7.326304 -12.23241 -1.673985 21.32023 3.818318 5.661854 16.22257 -8.650846 -8.435072 9.68737 11.06731 6.904145 -30.5629 6.897153 22.14609 -8.774104 22.81678 -58.81693 -33.70666 12.9416 0 -67.03998 0 18.11199 3.989149 33.30559 -25.73171 -32.09795 2.206712 56.1028 -16.80468 -15.8057 0 -72.56851 0 2.138096 -14.02411 -10.14816
-0.006004674 48.02575 -0.07794216 -2.940114 -21.68103 -0.545497 -52.89273 -58.54194 -42.33871 -180 81.64994 -180 10.33787 2.681359 3.969531 62.95819 -50.38776 50.09541 -180 72.26469 -180 -7.426228 -7.312901 -12.3226 -1.227208 21.53828 3.606656 5.204643 16.00465 -8.474222 -7.925788 9.501634 10.72868 7.20451 -31.03072 6.917667 22.26538 -9.159566 21.6221 -59.35407 -32.86102 11.82327 0 -67.88738 0 17.98099 3.638233 33.33563 -25.36466 -34.68313 3.542076 57.17633 -14.14515 -10.48021 0 -69.27787 0 5.558591 -15.36359 -6.304348
0.09000638 47.98375 -0.1052593 -3.226819 -21.37787 -0.1618536 -53.13588 -58.45766 -42.76523 -180 81.68311 -180 10.40392 2.618333 3.789784 63.68072 -50.93665 50.71423 -180 72.17715 -180 -7.399093 -7.268699 -12.49381 -0.8718383 21.79117 3.356454 4.86601 15.70063 -8.40208 -7.495297 9.355941 10.44403 7.499107 -31.46884 6.954622 22.19213 -9.413473 20.81524 -59.81203 -32.16723 11.07631 0 -68.60978 0 17.94123 3.259414 33.29927 -24.71357 -37.41413 4.080041 58.40271 -12.10467 -5.718681 0 -64.5876 0 7.999211 -15.85539 -2.520208
0.1342483 47.97791 -0.07082007 -3.465942 -21.09934 0.1599411 -53.26327 -58.38842 -43.07029 -180 81.67536 -180 10.47042 2.537113 3.603048 64.42236 -51.26118 51.38221 -180 72.09155 -180 -7.355873 -7.22797 -12.73107 -0.8652069 21.9312 3.219085 4.77442 15.42338 -8.372412 -7.125458 9.239222 10.23412 7.813723 -31.86976 7.03822 22.03614 -9.419441 20.44736 -60.05847 -31.64333 10.79114 0 -69.28451 0 17.98352 2.841967 33.20479 -23.71991 -39.989 3.785883 59.86035 -10.87478 -1.989059 0 -59.13679 0 9.095985 -15.80399 0.7722583
